<svg width="25" height="25" fill="none" xmlns="http://www.w3.org/2000/svg"><path d="M24.219 16.797h-.39v-3.125a1.564 1.564 0 00-1.563-1.563V5.47a1.564 1.564 0 00-1.563-1.563H4.297A1.565 1.565 0 002.734 5.47v6.64a1.564 1.564 0 00-1.562 1.563v3.125h-.39a.39.39 0 00-.391.39v1.563a.39.39 0 00.39.39h.39v1.563a.39.39 0 00.391.39h1.172a.39.39 0 00.383-.313l.328-1.64h18.11l.328 1.64a.39.39 0 00.383.314h1.172a.39.39 0 00.39-.39V19.14h.39a.39.39 0 00.391-.391v-1.563a.39.39 0 00-.39-.39zM3.516 5.469a.782.782 0 01.78-.782h16.407a.783.783 0 01.781.782v6.64h-.78v-1.562a1.564 1.564 0 00-1.563-1.563h-4.688a1.564 1.564 0 00-1.562 1.563v1.562h-.782v-1.562a1.565 1.565 0 00-1.562-1.563H5.859a1.565 1.565 0 00-1.562 1.563v1.562h-.781V5.47zm16.406 5.078v1.562h-6.25v-1.562a.782.782 0 01.781-.781h4.688a.783.783 0 01.78.78zm-8.594 0v1.562h-6.25v-1.562a.782.782 0 01.781-.781h4.688a.782.782 0 01.781.78zm-9.375 3.125a.783.783 0 01.781-.781h19.532a.783.783 0 01.78.78v3.126H1.954v-3.125zm.461 6.64h-.46v-1.171h.694l-.234 1.172zm20.633 0h-.461l-.234-1.171h.695v1.172zm.781-1.953H1.172v-.78h22.656v.78z" fill="#9E1E21"/></svg>