<svg width="25" height="25" fill="none" xmlns="http://www.w3.org/2000/svg"><path d="M24.397 7.376h-1.862V1.383a.603.603 0 00-.603-.602H20.51a.601.601 0 00-.237.049.601.601 0 00-.237-.049h-1.422a.603.603 0 00-.603.602v4.109h-5.558a.603.603 0 00-.604.602v1.282H8.326a2 2 0 00.464-1.282c0-.888-.593-1.665-1.422-1.924V2.927h.108a.366.366 0 100-.732h-2.37a.366.366 0 100 .732h.108V4.17a2.027 2.027 0 00-1.422 1.924 2 2 0 00.464 1.282H.603A.603.603 0 000 7.978v5.181c0 .084.017.164.048.236a.597.597 0 00-.048.236v5.181c0 .332.27.602.603.602H4.46l-.917 4.07a.6.6 0 00.588.734h1.436c.25 0 .477-.156.565-.39l1.657-4.414h9.422l1.657 4.414c.088.234.315.39.565.39h1.435a.6.6 0 00.589-.733l-.917-4.071h3.857c.332 0 .603-.27.603-.602V13.63a.597.597 0 00-.048-.235.597.597 0 00.048-.236V7.978a.603.603 0 00-.603-.602zM5.632 4.825a.366.366 0 00.314-.363V2.927h.69v1.535c0 .182.134.337.314.363a1.29 1.29 0 011.108 1.269c0 .707-.58 1.282-1.293 1.282h-.948a1.289 1.289 0 01-1.293-1.282c0-.634.476-1.18 1.107-1.27zm-.154 18.661H4.294l.917-4.072h1.796l-1.53 4.072zm6.656-4.805H.732v-4.92h11.402v4.92zm0-5.652H.732v-4.92h11.402v4.92zm8.505-11.515h1.164v5.862h-1.164V1.514zm-1.896 0h1.164v5.862h-.69V6.094a.603.603 0 00-.474-.588V1.514zm1.963 21.972h-1.184l-1.529-4.072h1.796l.917 4.072zm3.561-4.805h-11.4v-4.92h11.4v4.92zm0-5.652h-11.4v-4.92h3.156a.366.366 0 100-.733h-3.441V6.224h5.903v1.152h-1.15a.366.366 0 100 .733h6.932v4.92z" fill="#9E1E21"/><path d="M5.478 15.645h2.247a.366.366 0 100-.732H5.478a.366.366 0 100 .732zM16.908 9.627c0 .202.164.366.367.366h2.247a.366.366 0 100-.733h-2.247a.366.366 0 00-.367.367zM17.275 15.645h2.247a.366.366 0 100-.732h-2.247a.366.366 0 100 .732zM5.478 9.993h2.247a.366.366 0 100-.733H5.478a.366.366 0 100 .733z" fill="#9E1E21"/></svg>