<svg width="25" height="25" fill="none" xmlns="http://www.w3.org/2000/svg"><path d="M5.469 23.367a1.562 1.562 0 100-3.125 1.562 1.562 0 000 3.125zm0-2.344a.781.781 0 110 1.563.781.781 0 010-1.563z" fill="#9E1E21"/><path d="M21.938 23.308V10.66L13 4.9 5.287 9.87l-.183-1.384c.389-.23.693-.58.865-1L13 2.954l10.47 6.747.372-.583L13 2.132 6.119 6.567c-.066-2.12-1.72-4.158-1.792-4.245L4.063 2l-.265.323C3.724 2.413 2 4.542 2 6.696a2.08 2.08 0 001.02 1.789l-.673 5.087L2.344 24h.687V13.964h2.063v4.184l-.543.315H3.72V24h16.5v-5.537h-.74l-.932-3.49-.735.198v-5.014H8.188v6.192l-2.406 1.4v-4.131l-.394-2.99L13 5.722l8.25 5.316V24H24v-.692h-2.063zM3.08 13.27l.601-4.536c.252.05.511.05.763 0l.6 4.537H3.08zm1.326-5.24V6.696H3.72V8.03a1.383 1.383 0 01-1.031-1.335c0-1.426.91-2.912 1.374-3.575.465.661 1.375 2.142 1.375 3.575a1.383 1.383 0 01-1.03 1.335zm8.25 15.277h-2.75v-4.153h2.75v4.153zm3.438 0h-2.75v-4.153h2.75v4.153zm3.437-4.153v4.153h-2.75v-4.153h2.75zm-1.47-3.335l.706 2.643H8.27l9.79-2.643zm-4.717-4.971h3.781v3.338l-1.304-2.274-2.477 1.44v-2.504zm-4.469 0h3.781v2.769H8.875v-2.77zm0 3.46h2.822l-2.822 1.64v-1.64zm6.694-1.45l1.45 2.526-10.823 2.921 9.373-5.448zm-6.35 6.296v4.153H4.406v-4.153H9.22z" fill="#9E1E21"/></svg>