<svg width="22" height="22" fill="none" xmlns="http://www.w3.org/2000/svg"><path d="M8.54 21.405c-.107 0-.213-.013-.317-.04-.574-.154-.927-.69-1.268-1.207a2.811 2.811 0 00-.74-.87 2.84 2.84 0 00-1.142-.213c-.614-.037-1.247-.078-1.659-.489-.412-.411-.451-1.045-.489-1.659a2.846 2.846 0 00-.214-1.14 2.806 2.806 0 00-.87-.74c-.517-.342-1.053-.695-1.206-1.269-.149-.55.132-1.112.403-1.655.207-.343.341-.725.393-1.123a2.886 2.886 0 00-.393-1.122c-.27-.543-.55-1.104-.403-1.655.153-.574.689-.927 1.206-1.268.338-.184.634-.436.87-.74.15-.362.222-.75.214-1.142.038-.613.077-1.246.489-1.659.412-.412 1.045-.451 1.658-.489.391.008.78-.065 1.141-.214.304-.235.557-.53.742-.868.341-.518.694-1.053 1.268-1.206.549-.146 1.112.132 1.655.402.343.207.725.34 1.122.392.397-.052.78-.186 1.122-.393.543-.27 1.106-.549 1.655-.403.574.153.927.689 1.268 1.207.185.337.437.633.741.87.362.148.751.221 1.143.213.612.038 1.246.077 1.658.489.412.412.45 1.045.488 1.658-.008.391.065.78.214 1.142.236.303.532.555.87.74.517.341 1.053.694 1.206 1.268.147.55-.132 1.112-.403 1.655A2.883 2.883 0 0020.57 11c.052.397.186.78.393 1.122.27.543.55 1.104.403 1.655-.153.574-.689.927-1.206 1.268a2.806 2.806 0 00-.87.742c-.15.361-.222.75-.214 1.142-.038.612-.077 1.246-.489 1.658-.412.413-1.045.45-1.659.488a2.847 2.847 0 00-1.142.214 2.812 2.812 0 00-.74.87c-.341.517-.694 1.053-1.268 1.206-.55.146-1.112-.132-1.655-.402A2.884 2.884 0 0011 20.569c-.397.052-.78.186-1.122.393a3.19 3.19 0 01-1.338.443zm0-20.216a.634.634 0 00-.164.02c-.357.096-.645.536-.926.96-.23.418-.55.78-.938 1.057-.44.202-.92.302-1.404.293-.525.032-1.021.063-1.275.316-.253.253-.283.749-.316 1.275.01.483-.09.963-.292 1.403a3.177 3.177 0 01-1.055.938c-.425.28-.864.57-.96.926-.089.333.13.773.361 1.236.254.422.41.896.454 1.387a3.27 3.27 0 01-.455 1.387c-.232.465-.45.902-.36 1.236.094.357.534.646.959.926.418.23.78.55 1.057.938.202.44.302.92.292 1.404.033.525.063 1.022.316 1.275.253.253.75.283 1.276.316.483-.01.963.09 1.403.292.388.277.709.639.938 1.057.28.425.57.864.926.96.333.089.773-.13 1.236-.36.422-.255.896-.411 1.387-.457.49.046.965.202 1.387.456.464.232.904.45 1.236.36.357-.095.645-.534.926-.959.23-.418.55-.78.938-1.057.44-.202.92-.302 1.404-.293.525-.032 1.021-.063 1.275-.316.253-.252.283-.749.316-1.275-.01-.483.09-.963.292-1.403a3.176 3.176 0 011.057-.938c.425-.28.864-.57.96-.926.089-.333-.13-.773-.36-1.236A3.27 3.27 0 0119.973 11c.046-.49.202-.965.456-1.387.231-.465.45-.903.36-1.236-.095-.357-.534-.645-.959-.926-.418-.23-.78-.55-1.057-.938a3.221 3.221 0 01-.293-1.404c-.032-.525-.063-1.021-.316-1.275-.253-.253-.75-.283-1.275-.316-.483.01-.963-.09-1.403-.292a3.176 3.176 0 01-.938-1.056c-.28-.425-.57-.864-.926-.96-.333-.088-.771.13-1.236.361-.422.254-.896.41-1.387.455a3.268 3.268 0 01-1.387-.456 2.78 2.78 0 00-1.072-.38z" fill="#9E1E21"/><path d="M13.37 15.171a1.715 1.715 0 11-.002-3.43 1.715 1.715 0 01.002 3.43zm0-2.835a1.12 1.12 0 10.457.096 1.114 1.114 0 00-.458-.096h.001zM8.631 10.258a1.716 1.716 0 11-.001-3.432 1.716 1.716 0 01.001 3.432zm0-2.835a1.12 1.12 0 10.457.097 1.12 1.12 0 00-.458-.097h.001zM7.038 15.157a.297.297 0 01-.208-.51l7.925-7.72a.298.298 0 01.416.426l-7.926 7.72a.297.297 0 01-.207.084z" fill="#9E1E21"/></svg>