<svg width="25" height="25" fill="none" xmlns="http://www.w3.org/2000/svg"><path d="M22.11 20.755h-2.66V3.903a.342.342 0 00-.304-.34L10.162 2.55a.342.342 0 00-.38.34v.672h-3.89a.342.342 0 00-.342.341v16.852H2.89a.342.342 0 100 .684h6.892v.671a.342.342 0 00.38.34l8.966-1.011h2.983a.342.342 0 000-.684zM6.234 4.245h3.548v.879H7.454a.342.342 0 00-.342.342v15.289h-.878V4.245zm1.562 16.51V5.808h1.986v14.947H7.796zm2.67-17.483l8.3.937v16.582l-8.3.938V3.272z" fill="#9E1E21"/><path d="M11.938 11.483a1.018 1.018 0 100 2.036 1.018 1.018 0 000-2.036zm0 1.35a.334.334 0 110-.668.334.334 0 010 .669z" fill="#9E1E21"/></svg>