<svg width="25" height="25" fill="none" xmlns="http://www.w3.org/2000/svg"><path d="M24.057 18.16H10.849V4.953h.944v2.83c0 1.04.846 1.887 1.886 1.887s1.887-.846 1.887-1.887a.472.472 0 00-.943 0 .944.944 0 01-1.887 0v-2.83h3.773v2.83c0 1.04.847 1.887 1.887 1.887s1.887-.846 1.887-1.887a.472.472 0 00-.943 0 .944.944 0 01-1.887 0v-2.83h3.773v2.83c0 1.04.847 1.887 1.887 1.887S25 8.824 25 7.783a.472.472 0 00-.943 0 .944.944 0 01-1.887 0v-2.83h1.887v-.944H10.849V1.18a.472.472 0 00-.472-.471H.943a.472.472 0 00-.471.471V18.16a.472.472 0 00-.472.472v5.189c0 .26.211.471.472.471h23.585c.26 0 .471-.21.471-.471v-5.189a.472.472 0 00-.471-.472zM9.906 4.01v14.15H6.132V1.65h3.774v2.36zM1.416 1.65h3.773v16.51H1.415V1.65zm22.169 21.698H.943v-4.245h22.642v4.245z" fill="#9E1E21"/><path d="M13.68 20.047h-2.831v.944h2.83v-.944zM4.717 8.726h-.943v2.359h.943V8.726zM9.434 8.726h-.943v2.359h.943V8.726z" fill="#9E1E21"/></svg>