<svg width="25" height="25" fill="none" xmlns="http://www.w3.org/2000/svg"><path d="M12.5 14.844c3.23 0 5.86-3.33 5.86-7.422C18.36 3.329 15.73 0 12.5 0 9.27 0 6.64 3.33 6.64 7.422c0 4.093 2.63 7.422 5.86 7.422zM12.5.78c2.8 0 5.078 2.98 5.078 6.64 0 3.663-2.278 6.641-5.078 6.641-2.8 0-5.078-2.978-5.078-6.64C7.422 3.76 9.7.782 12.5.782z" fill="#9E1E21"/><path d="M12.5 12.89c2.37 0 4.297-2.453 4.297-5.468 0-3.016-1.928-5.469-4.297-5.469-2.37 0-4.297 2.453-4.297 5.469 0 3.016 1.928 5.469 4.297 5.469zm0-10.156c1.939 0 3.516 2.103 3.516 4.688 0 2.585-1.577 4.687-3.516 4.687s-3.516-2.102-3.516-4.687c0-2.585 1.577-4.688 3.516-4.688z" fill="#9E1E21"/><path d="M11.719 9.766a.39.39 0 00.276-.115l1.563-1.562a.39.39 0 00-.553-.553L11.443 9.1a.39.39 0 00.276.667zM11.833 11.214a.39.39 0 00.553 0l2.93-2.93a.39.39 0 00-.553-.552l-2.93 2.93a.39.39 0 000 .552zM19.922 16.016H5.078a.39.39 0 00-.39.39v8.203c0 .216.174.391.39.391h1.563a.39.39 0 00.39-.39v-3.126H17.97v3.125c0 .216.175.391.39.391h1.563a.39.39 0 00.39-.39v-8.204a.39.39 0 00-.39-.39zM6.25 24.219h-.781v-2.735h.781v2.735zm13.281 0h-.781v-2.735h.781v2.735zm0-3.516H5.47v-3.906h3.906c0 .216.175.39.39.39h5.47a.39.39 0 00.39-.39h3.906v3.906z" fill="#9E1E21"/></svg>