<svg width="25" height="25" fill="none" xmlns="http://www.w3.org/2000/svg"><path d="M23.761 9.337h-.497V7.491c0-1.09-.887-1.979-1.979-1.979h-7.172c-.665 0-1.254.33-1.613.835a1.977 1.977 0 00-1.613-.835H6.381a.366.366 0 000 .733h4.506c.688 0 1.247.559 1.247 1.246v3.663l-.024-.021a2.395 2.395 0 00-1.616-.638h-6.1a1.256 1.256 0 00-.83-1.089 1.217 1.217 0 00-.406-.069h-.69V7.491c0-.687.56-1.246 1.247-1.246H6.5c.202 0 0-.164 0-.366 0-.203.202-.367 0-.367H3.715c-1.092 0-1.98.888-1.98 1.98v1.845H1.24A1.24 1.24 0 000 10.577V14.4a2.583 2.583 0 002.58 2.58h.184l-.401 1.08a1.07 1.07 0 00.992 1.428h.59c.33 0 .645-.157.844-.42l1.579-2.088h12.264l1.579 2.088c.199.263.515.42.844.42h.59a1.07 1.07 0 00.992-1.428l-.401-1.08h.184A2.583 2.583 0 0025 14.4v-3.824a1.24 1.24 0 00-1.239-1.239zM12.866 7.492c0-.688.56-1.247 1.247-1.247h7.172c.688 0 1.247.56 1.247 1.247v1.845h-.69c-.487 0-.954.313-1.142.761a1.23 1.23 0 00-.094.397h-6.1c-.603 0-1.204.242-1.64.66V7.491zm-8.47 3.735h6.098c.904 0 1.64.736 1.64 1.64v.52H4.397v-2.16zm-.191 7.399a.328.328 0 01-.26.13h-.59a.33.33 0 01-.305-.44l.496-1.335h1.903l-1.244 1.645zm17.44.13h-.59a.328.328 0 01-.26-.13l-1.244-1.646h1.903l.497 1.335a.33.33 0 01-.306.44zm.775-2.508H2.58A1.85 1.85 0 01.732 14.4v-3.824c0-.279.228-.506.507-.506h1.919c.279 0 .506.227.506.506v3.178c0 .202.164.366.366.366h13.451a.366.366 0 100-.732h-4.615v-.521c0-.904.736-1.64 1.64-1.64h6.097v2.16H17.5a.366.366 0 100 .733h3.47a.366.366 0 00.366-.366v-3.178c0-.279.227-.506.506-.506h1.919c.28 0 .506.227.506.506V14.4a1.85 1.85 0 01-1.847 1.848z" fill="#9E1E21"/></svg>