<svg width="25" height="25" fill="none" xmlns="http://www.w3.org/2000/svg"><path d="M24.048 4.04h-4.004a.366.366 0 000 .733h4.004a.22.22 0 01.22.22V6.05a.218.218 0 01-.22.22H.952a.22.22 0 01-.22-.22V4.993a.22.22 0 01.22-.22h19.086c.202 0 3.33-.164 3.33-.366 0-.202-1.463-.366-1.665-.366H.953A.953.953 0 000 4.993V6.05c0 .525.427.952.952.952h.39v1.541c0 .687.56 1.246 1.246 1.246h.802v6.345a.366.366 0 00.732 0V9.789h1.406l-.629 10.073a.39.39 0 01-.777-.024v-4.02a.366.366 0 00-.732 0v4.02a1.122 1.122 0 002.24.07l.632-10.12h12.476l.632 10.12a1.122 1.122 0 002.24-.07V9.788h.802c.687 0 1.245-.558 1.245-1.244V7.002h.39A.947.947 0 0025 6.05V4.993a.953.953 0 00-.951-.952zm-3.17 15.798a.39.39 0 01-.777.024L19.472 9.79h1.406v10.049zm2.047-11.294c0 .282-.23.512-.513.512H2.588a.513.513 0 01-.513-.512V7.002h20.85v1.542z" fill="#9E1E21"/></svg>