<svg width="91" height="91" fill="none" xmlns="http://www.w3.org/2000/svg"><path d="M1.517 89.483h6.066c.838 0 1.517-.679 1.517-1.516v-3.034a4.55 4.55 0 014.55-4.55h48.533a4.55 4.55 0 014.55 4.55v3.034c0 .837.68 1.516 1.517 1.516h6.067c.837 0 1.516-.679 1.516-1.516V57.633a4.55 4.55 0 00-3.033-4.27v-13.93a7.592 7.592 0 00-7.583-7.583h-54.6a7.592 7.592 0 00-7.584 7.583v13.93A4.55 4.55 0 000 57.632v30.334c0 .837.68 1.516 1.517 1.516zm4.55-50.05a4.55 4.55 0 014.55-4.55h54.6a4.55 4.55 0 014.55 4.55v13.65h-4.59a7.508 7.508 0 001.556-4.55 7.592 7.592 0 00-7.583-7.583H47.017a7.592 7.592 0 00-7.584 7.583 7.51 7.51 0 001.556 4.55h-6.145a7.508 7.508 0 001.556-4.55 7.592 7.592 0 00-7.583-7.583H16.683A7.592 7.592 0 009.1 48.533a7.508 7.508 0 001.556 4.55h-4.59v-13.65zm57.633 9.1a4.55 4.55 0 01-4.55 4.55H47.017a4.55 4.55 0 010-9.1H59.15a4.55 4.55 0 014.55 4.55zm-30.333 0a4.55 4.55 0 01-4.55 4.55H16.683a4.55 4.55 0 010-9.1h12.134a4.55 4.55 0 014.55 4.55zM3.033 65.217h7.584a1.517 1.517 0 000-3.034H3.033v-4.55c0-.837.68-1.516 1.517-1.516h66.733c.838 0 1.517.679 1.517 1.516V68.25H3.033v-3.033zm0 6.066H72.8V86.45h-3.033v-1.517a7.592 7.592 0 00-7.584-7.583H13.65a7.592 7.592 0 00-7.583 7.583v1.517H3.033V71.283z" fill="#9E1E21"/><path d="M89.483 86.45H86.45V9.1a7.592 7.592 0 00-7.583-7.583h-4.55a7.597 7.597 0 00-7.432 6.066h-1.668c-.838 0-1.517.68-1.517 1.517v5.536l-5.734 7.166a1.515 1.515 0 001.184 2.465h3.249a6.037 6.037 0 0011.702 0h3.249a1.518 1.518 0 001.184-2.465L72.8 14.636V9.1c0-.838-.68-1.517-1.517-1.517h-1.237a4.55 4.55 0 014.27-3.033h4.55a4.55 4.55 0 014.55 4.55v77.35h-3.033a1.517 1.517 0 000 3.033h9.1a1.517 1.517 0 000-3.033zm-22.75-75.833h3.034v3.033h-3.034v-3.033zm1.517 15.166a3.032 3.032 0 01-2.625-1.516h5.25a3.032 3.032 0 01-2.625 1.516zm2.305-9.1l3.64 4.55H62.306l3.64-4.55h4.61zM18.2 62.183h-1.517a1.517 1.517 0 000 3.034H18.2a1.517 1.517 0 000-3.034z" fill="#9E1E21"/></svg>