<svg width="86" height="86" fill="none" xmlns="http://www.w3.org/2000/svg"><path d="M84.316 55.09H80.23l1.678-10.91a1.679 1.679 0 00-.028-.643c.046-.065.093-.13.137-.196 3.557-5.236 3.963-11.093 3.978-11.34a1.68 1.68 0 00-2.463-1.589c-.18.095-3.489 1.877-6.615 5.067-.594-5.787-3.132-10.14-3.254-10.345a1.68 1.68 0 00-1.445-.824h-.001a1.68 1.68 0 00-1.446.826c-.12.204-2.623 4.51-3.23 10.245-3.137-3.164-6.464-4.889-6.644-4.98a1.678 1.678 0 00-2.44 1.6c.015.247.421 6.104 3.978 11.34l.137.197c-.05.208-.061.425-.028.641l1.678 10.91H58.45V29.247a1.68 1.68 0 00-1.68-1.68H35.18a1.68 1.68 0 000 3.36h19.912V55.09H30.906V30.925h4.65a1.68 1.68 0 000-3.359h-4.65V1.68A1.68 1.68 0 0029.226 0H1.68A1.68 1.68 0 000 1.68v82.636c0 .927.752 1.68 1.68 1.68h82.636a1.68 1.68 0 001.68-1.68V56.769a1.68 1.68 0 00-1.68-1.68zM20.16 82.553a.084.084 0 01-.084.083H3.447a.084.084 0 01-.083-.083v-4.937c0-.046.037-.084.083-.084h16.629c.046 0 .084.038.084.084v4.937zM3.364 74.09v-3.242c0-.046.037-.083.083-.083h11.284c.046 0 .083.037.083.083v3.242a.084.084 0 01-.083.084H3.447a.084.084 0 01-.083-.084zm24.181 8.546h-4.03c0-.028.004-.055.004-.083v-4.937a3.447 3.447 0 00-3.443-3.442H18.17c.001-.029.005-.056.005-.084v-3.242a3.447 3.447 0 00-3.443-3.442H3.447c-.03 0-.058.003-.088.004v-8.961h24.186v24.187zM8.735 44.677h-.336v-4.703h14.108v4.703H8.735zm11.757 3.36v7.053H10.414v-7.053h10.078zm7.053 7.053h-3.694v-7.053h.336a1.68 1.68 0 001.68-1.68v-8.062a1.68 1.68 0 00-1.68-1.68H6.719a1.68 1.68 0 00-1.68 1.68v8.062c0 .928.753 1.68 1.68 1.68h.336v7.053H3.359V30.948h24.186V55.09zM19.3 19.007a7.063 7.063 0 011.777 4.687v3.872H9.83v-3.872c0-1.728.63-3.393 1.777-4.687a10.42 10.42 0 002.622-6.914v-2.52h2.45v2.52c0 2.55.931 5.005 2.622 6.914zm8.247 8.56h-3.11v-3.873c0-2.55-.931-5.005-2.622-6.915a7.062 7.062 0 01-1.777-4.686V7.894a1.68 1.68 0 00-1.68-1.68h-5.81a1.68 1.68 0 00-1.68 1.68v4.199a7.063 7.063 0 01-1.777 4.687 10.42 10.42 0 00-2.622 6.914v3.872H3.36V3.36h24.188v24.207zm12.357 54.986a.084.084 0 01-.084.083H36.58a.084.084 0 01-.084-.083V71.269c0-.046.038-.084.084-.084h3.241c.046 0 .084.038.084.084v11.284zm6.725 0a.084.084 0 01-.084.083h-3.199a.084.084 0 01-.083-.083V65.924c0-.046.037-.084.083-.084h3.2c.045 0 .083.038.083.084v16.629zm-.084-20.072h-3.199a3.447 3.447 0 00-3.442 3.443v1.906c-.028 0-.056-.004-.084-.004H36.58a3.447 3.447 0 00-3.443 3.443v11.284c0 .028.003.055.004.083h-2.234V58.45H55.09v4.036c-.028 0-.055-.004-.082-.004h-4.937c-.644 0-1.246.181-1.763.491a3.417 3.417 0 00-1.763-.491zm8.545 20.081a.083.083 0 01-.082.074h-4.937a.084.084 0 01-.083-.083v-16.63c0-.045.037-.083.083-.083h4.937c.043 0 .077.033.082.075v16.647zm21.76-41.746c.068-.07.131-.146.188-.23 1.443-2.123 3.314-3.844 4.89-5.07-.494 1.765-1.32 3.924-2.689 5.938-.18.265-.37.529-.57.79h-2.043c.088-.478.163-.955.223-1.428zm-4.625-10.748c.728 1.994 1.457 4.747 1.46 7.775 0 1.424-.16 2.899-.48 4.401h-1.95a21.14 21.14 0 01-.485-4.398c-.002-3.016.727-5.776 1.455-7.778zm-1.313 15.535H78.292l-1.459 9.487h-9.212l-1.458-9.487h4.75zm-8.41-10.166c1.59 1.205 3.487 2.916 4.941 5.057.045.066.095.127.148.185.063.519.144 1.04.241 1.566h-2.047c-.2-.262-.39-.526-.57-.791-1.39-2.045-2.22-4.238-2.712-6.017zm20.134 47.2H67.524V71.382a1.68 1.68 0 00-3.36 0v11.253h-5.713V58.45h24.185v24.187z" fill="#9E1E21"/></svg>