<svg width="88" height="88" fill="none" xmlns="http://www.w3.org/2000/svg"><path d="M22.063 59.859H11.65l-2.38-16.66a4.404 4.404 0 00-8.733 1.108L2.514 62.12a7.28 7.28 0 003.343 5.352L.22 87.197 3.028 88l5.568-19.491c.386.068.777.105 1.168.11h10.84v18.98h2.92V68.35a4.369 4.369 0 00-1.46-8.491zm0 5.84H9.77a4.38 4.38 0 01-4.35-3.895L3.442 43.992a1.48 1.48 0 011.47-1.653 1.488 1.488 0 011.46 1.273l2.566 17.914a1.46 1.46 0 001.445 1.253h11.68a1.46 1.46 0 010 2.92zM82.068 67.471a7.28 7.28 0 003.34-5.347l1.978-17.81a4.403 4.403 0 00-8.733-1.11l-2.377 16.655H65.863a4.37 4.37 0 00-1.46 8.491V87.6h2.92v-18.98h10.832a7.294 7.294 0 001.168-.11L84.891 88l2.81-.802-5.633-19.726zM78.155 65.7H65.863a1.46 1.46 0 010-2.92h11.68a1.46 1.46 0 001.444-1.253l2.56-17.914a1.488 1.488 0 011.46-1.273 1.482 1.482 0 011.473 1.647l-1.974 17.816a4.38 4.38 0 01-4.35 3.897z" fill="#9E1E21"/><path d="M52.723 78.839h-4.38v-30.66h17.52a1.46 1.46 0 001.46-1.46v-5.84a1.46 1.46 0 00-1.46-1.46h-43.8a1.46 1.46 0 00-1.46 1.46v5.84c0 .806.654 1.46 1.46 1.46h17.52v30.66h-4.38a1.46 1.46 0 00-1.46 1.46v5.84c0 .806.654 1.46 1.46 1.46h17.52a1.46 1.46 0 001.46-1.46v-5.84a1.46 1.46 0 00-1.46-1.46zm-29.2-33.58v-2.92h40.88v2.92h-40.88zm21.9 2.92v30.66h-2.92v-30.66h2.92zm5.84 36.5h-14.6v-2.92h14.6v2.92zM36.663 20.44h14.6a1.459 1.459 0 001.032-2.493l-6.872-6.872V0h-2.92v11.075l-6.872 6.872a1.46 1.46 0 001.032 2.493zm7.3-6.696l3.775 3.776h-7.55l3.775-3.776z" fill="#9E1E21"/></svg>