<svg width="82" height="82" fill="none" xmlns="http://www.w3.org/2000/svg"><path d="M64.233 0H17.767C17.012 0 16.4.612 16.4 1.367v79.266c0 .755.612 1.367 1.367 1.367h46.466c.755 0 1.367-.612 1.367-1.367V1.367C65.6.612 64.988 0 64.233 0zm-1.366 79.267H19.133V2.733h43.734v76.534z" fill="#9E1E21"/><path d="M58.767 5.467H23.233c-.754 0-1.366.612-1.366 1.366v73.8c0 .755.612 1.367 1.366 1.367h35.534c.754 0 1.366-.612 1.366-1.367v-73.8c0-.754-.612-1.366-1.366-1.366zm-1.367 73.8H24.6V8.2h32.8v71.067z" fill="#9E1E21"/><path d="M80.633 79.267H1.367a1.367 1.367 0 000 2.733h79.266a1.367 1.367 0 000-2.733zM34.167 42.367H28.7a1.367 1.367 0 000 2.733h5.467a1.367 1.367 0 000-2.733zM53.3 10.933H28.7c-.754 0-1.367.613-1.367 1.367v25.967c0 .754.613 1.366 1.367 1.366h24.6c.754 0 1.367-.612 1.367-1.366V12.3c0-.754-.613-1.367-1.367-1.367zM51.933 36.9H30.067V13.667h21.866V36.9zM53.3 47.833H28.7c-.754 0-1.367.613-1.367 1.367v25.967c0 .754.613 1.366 1.367 1.366h24.6c.754 0 1.367-.612 1.367-1.366V49.2c0-.754-.613-1.367-1.367-1.367zM51.933 73.8H30.067V50.567h21.866V73.8z" fill="#9E1E21"/></svg>