<svg width="14" height="14" fill="none" xmlns="http://www.w3.org/2000/svg"><path d="M7.035 0h-.011C3.166.002 0 3.124 0 6.973c0 .94.187 1.857.557 2.724a7.127 7.127 0 003.746 3.746c.867.37 1.783.557 2.724.557h.003C10.9 13.999 14 10.81 14 6.973A6.968 6.968 0 007.035 0zM5.67.97A8.126 8.126 0 003.967 3.28H2.065A6.225 6.225 0 015.669.97zm-4.13 3.126h2.078a8.507 8.507 0 00-.5 2.466H.834a6.092 6.092 0 01.705-2.466zm.016 5.802a6.161 6.161 0 01-.72-2.515h2.279c.039.861.21 1.712.503 2.515H1.555zm.527.82h1.885c.43.871 1 1.648 1.7 2.311a6.22 6.22 0 01-3.585-2.31zm1.853-3.335h2.682v2.515H4.501a7.544 7.544 0 01-.566-2.515zm2.682 5.39a7.452 7.452 0 01-1.715-2.054h1.715v2.054zm0-6.21H3.938c.05-.858.243-1.689.564-2.461h2.115v2.46zm0-3.282H4.902a7.451 7.451 0 011.715-2.054v2.054zm5.85.82c.394.744.64 1.578.699 2.461h-2.228a8.473 8.473 0 00-.5-2.46h2.03zm-.52-.82h-1.86c-.429-.87-1-1.646-1.697-2.308a6.166 6.166 0 013.556 2.308zm-4.51-2.054a7.45 7.45 0 011.716 2.054H7.438V1.227zm0 2.875h2.117c.32.772.513 1.603.563 2.46h-2.68v-2.46zm2.683 3.275a7.576 7.576 0 01-.566 2.521H7.437v-2.52h2.683zm-2.682 5.396v-2.06h1.715a7.474 7.474 0 01-1.715 2.06zm.953.253a8.15 8.15 0 001.696-2.313h1.842a6.17 6.17 0 01-3.538 2.313zm2.047-3.128a8.51 8.51 0 00.503-2.52h2.225a6.229 6.229 0 01-.714 2.52h-2.014z" fill="#9E1E21"/></svg>