<svg width="20" height="20" fill="none" xmlns="http://www.w3.org/2000/svg"><path d="M19.882 6.901c-.259-.765-.88-1.246-1.428-1.672-.293-.227-.57-.441-.73-.652-.163-.214-.291-.535-.428-.874-.252-.628-.538-1.34-1.2-1.801-.648-.453-1.43-.495-2.119-.532-.387-.02-.753-.04-1.032-.127-.255-.08-.55-.263-.862-.458C11.495.417 10.827 0 10 0 9.17 0 8.505.417 7.917.785c-.312.195-.607.378-.863.458-.278.087-.644.107-1.032.127-.689.037-1.47.079-2.119.532-.661.462-.947 1.173-1.2 1.8-.136.34-.265.66-.428.876-.16.21-.437.425-.73.653C.998 5.656.376 6.137.118 6.9c-.251.742-.05 1.475.129 2.121.099.36.193.7.193.978 0 .28-.094.619-.193.98-.178.645-.38 1.378-.129 2.121.259.764.88 1.245 1.428 1.67.292.227.57.441.729.652.163.215.292.535.428.875.252.628.539 1.34 1.202 1.802.648.452 1.428.494 2.117.53.388.021.754.04 1.032.127.256.08.55.264.862.459.588.368 1.255.784 2.084.784.828 0 1.495-.416 2.084-.784.312-.195.606-.379.862-.459.278-.086.644-.106 1.032-.127.689-.036 1.47-.078 2.118-.53.663-.463.948-1.175 1.201-1.803.136-.34.265-.66.427-.874.16-.21.437-.425.73-.652.548-.425 1.17-.906 1.428-1.67.252-.743.05-1.476-.13-2.123-.099-.36-.193-.7-.193-.978s.094-.619.194-.978c.178-.646.38-1.38.129-2.121zm-1.736 4.521c.12.436.245.887.157 1.144-.097.29-.49.594-.87.888-.366.284-.743.576-1.036.962-.298.392-.475.834-.646 1.26-.182.452-.354.879-.61 1.057-.257.18-.74.206-1.252.233-.473.026-.962.052-1.439.2-.46.144-.86.394-1.249.636-.437.273-.85.531-1.201.531-.351 0-.764-.258-1.201-.53-.388-.242-.789-.493-1.25-.636-.476-.149-.965-.175-1.438-.2-.512-.027-.995-.053-1.252-.233-.256-.178-.427-.605-.61-1.057-.171-.426-.349-.868-.647-1.26-.292-.386-.67-.68-1.035-.963-.38-.294-.773-.599-.87-.887-.088-.258.036-.71.156-1.146.119-.43.253-.916.253-1.42 0-.504-.134-.991-.253-1.421-.12-.436-.244-.886-.156-1.145.097-.288.49-.593.87-.887.365-.284.743-.577 1.035-.962.298-.393.476-.835.648-1.262.182-.451.353-.878.607-1.055.26-.181.742-.207 1.254-.235.473-.025.962-.051 1.438-.2.461-.142.862-.393 1.25-.635.438-.274.85-.532 1.2-.532.351 0 .764.258 1.201.53.389.243.79.494 1.25.637.477.148.966.175 1.439.2.511.027.995.052 1.253.234.255.178.426.604.608 1.056.171.426.349.868.647 1.26.293.386.67.679 1.036.962.38.295.772.6.87.889.088.258-.037.708-.157 1.144-.119.43-.253.917-.253 1.421 0 .505.134.992.253 1.422z" fill="#9E1E21"/><path d="M13.75 10A3.754 3.754 0 0110 13.75 3.754 3.754 0 016.25 10 3.754 3.754 0 0110 6.25h.833V4.585H10a5.423 5.423 0 00-5.417 5.417A5.423 5.423 0 0010 15.417a5.423 5.423 0 005.416-5.416v-.834h-1.667v.834z" fill="#9E1E21"/><path d="M9.166 7.989L7.988 9.167 10 11.18l4.511-4.512-1.178-1.178L10 8.822l-.834-.833z" fill="#9E1E21"/></svg>