<svg width="82" height="82" fill="none" xmlns="http://www.w3.org/2000/svg"><path d="M16.4 82h49.2a6.841 6.841 0 006.833-6.833V6.833A6.841 6.841 0 0065.6 0H16.4a6.841 6.841 0 00-6.833 6.833v68.334A6.841 6.841 0 0016.4 82zm53.3-30.067h-5.467a2.733 2.733 0 010-5.466H69.7v5.466zm-27.333-49.2H65.6a4.1 4.1 0 014.1 4.1V8.2H42.367V2.733zm0 8.2H69.7v2.734H42.367v-2.734zm0 5.467h12.3v1.367H53.3a5.757 5.757 0 00-5.178 3.2l-2.885 5.756a1.364 1.364 0 00.791 1.913l3.172 1.05v5.847c0 .755.612 1.367 1.367 1.367H61.5c.755 0 1.367-.612 1.367-1.367v-5.847l3.165-1.055a1.368 1.368 0 00.791-1.914l-2.878-5.755a5.757 5.757 0 00-5.178-3.195H57.4V16.4h12.3v27.333h-5.467a5.467 5.467 0 00-5.466 5.467c.005.962.268 1.906.76 2.733h-3.745a3.974 3.974 0 00-.82-4.1A4.081 4.081 0 0051.933 41h-9.566V16.4zm8.631 11.003l-2.604-.868 2.173-4.346A3.04 3.04 0 0153.3 20.5h5.467a3.04 3.04 0 012.733 1.689l2.173 4.346-2.605.868a1.367 1.367 0 00-.935 1.297v5.467h-8.2V28.7c0-.589-.376-1.111-.935-1.297zm-8.631 16.33h9.566a1.367 1.367 0 010 2.734h-9.566v-2.734zm0 5.467h9.566a1.367 1.367 0 010 2.733h-9.566V49.2zm0 5.467H69.7V65.6H42.367V54.667zm0 13.666H69.7v6.834a4.1 4.1 0 01-4.1 4.1H42.367V68.333zM12.3 6.833a4.1 4.1 0 014.1-4.1h23.233v49.2H12.3v-45.1zm0 47.834h27.333V65.6H12.3V54.667zm0 13.666h27.333v10.934H16.4a4.1 4.1 0 01-4.1-4.1v-6.834z" fill="#9E1E21"/><path d="M58.767 72.433H53.3a1.367 1.367 0 000 2.734h5.467a1.367 1.367 0 000-2.734zM23.233 75.167H28.7a1.367 1.367 0 000-2.734h-5.467a1.367 1.367 0 000 2.734zM28.7 58.767h-5.467a1.367 1.367 0 000 2.733H28.7a1.367 1.367 0 000-2.733zM58.767 58.767H53.3a1.367 1.367 0 000 2.733h5.467a1.367 1.367 0 000-2.733zM16.4 23.233c-.755 0-1.367.612-1.367 1.367v4.1a1.367 1.367 0 002.734 0v-4.1c0-.755-.612-1.367-1.367-1.367z" fill="#9E1E21"/></svg>