<svg width="82" height="82" fill="none" xmlns="http://www.w3.org/2000/svg"><path d="M80.719 48.688H55.094v-2.563h1.281a1.281 1.281 0 000-2.563h-1.281v-1.28a5.125 5.125 0 0110.25 0 1.281 1.281 0 102.562 0 7.687 7.687 0 10-15.375 0v6.406h-21.5a3.82 3.82 0 001-2.563v-7.688c0-.707-.573-1.28-1.281-1.28H11.531c-.707 0-1.281.573-1.281 1.28v7.688a3.82 3.82 0 001 2.563H1.28c-.707 0-1.281.573-1.281 1.28v30.75C0 81.427.574 82 1.281 82H80.72c.707 0 1.281-.574 1.281-1.281v-30.75c0-.708-.574-1.282-1.281-1.282zm-67.906-8.97h16.656v6.407c0 .708-.574 1.281-1.282 1.281H14.095a1.281 1.281 0 01-1.281-1.281v-6.406zm7.687 39.72H2.562V64.061H20.5v15.376zm0-17.938H2.562V51.25h3.844c0 .708.574 1.281 1.282 1.281h7.687c.708 0 1.281-.573 1.281-1.281H20.5V61.5zm38.438 17.938H23.062V51.25h35.876v28.188zm20.5 0H61.5V64.061h17.938v15.376zm0-17.938H61.5V51.25h3.844c0 .708.573 1.281 1.281 1.281h7.688c.707 0 1.28-.573 1.28-1.281h3.844V61.5z" fill="#9E1E21"/><path d="M25.625 70.469h30.75c.708 0 1.281-.574 1.281-1.281V56.374c0-.708-.573-1.281-1.281-1.281h-30.75c-.708 0-1.281.573-1.281 1.281v12.813c0 .707.573 1.28 1.281 1.28zm1.281-12.813h28.188v10.25H26.906v-10.25zM48.688 74.313H33.312a1.281 1.281 0 000 2.562h15.376a1.281 1.281 0 000-2.563zM14.094 19.219h53.812c.708 0 1.281-.574 1.281-1.282V1.282c0-.707-.573-1.281-1.28-1.281H14.093c-.708 0-1.281.574-1.281 1.281v16.657c0 .707.573 1.28 1.28 1.28zM42.28 2.562h24.344v14.094H42.281V2.563zm-26.906 0h24.344v14.094H15.375V2.563z" fill="#9E1E21"/><path d="M32.031 8.969h-10.25a1.281 1.281 0 000 2.562h10.25a1.281 1.281 0 100-2.562zM60.219 8.969h-10.25a1.281 1.281 0 000 2.562h10.25a1.281 1.281 0 000-2.562z" fill="#9E1E21"/></svg>