<svg width="15" height="15" fill="none" xmlns="http://www.w3.org/2000/svg"><path d="M7.5 3.224A2.788 2.788 0 004.715 6.01 2.788 2.788 0 007.5 8.794a2.788 2.788 0 002.784-2.785A2.788 2.788 0 007.5 3.224zm0 4.397A1.614 1.614 0 015.887 6.01c0-.889.724-1.612 1.613-1.612s1.612.723 1.612 1.612c0 .89-.723 1.612-1.612 1.612z" fill="#9E1E21"/><path d="M7.5 0a6.016 6.016 0 00-6.009 6.01v.165c0 1.676.961 3.629 2.856 5.804a24.711 24.711 0 002.785 2.723L7.5 15l.369-.298a24.69 24.69 0 002.785-2.723c1.895-2.175 2.856-4.128 2.856-5.804V6.01A6.016 6.016 0 007.5 0zm4.837 6.175c0 2.832-3.649 6.26-4.837 7.301-1.188-1.04-4.836-4.469-4.836-7.3v-.167A4.842 4.842 0 017.5 1.173a4.842 4.842 0 014.837 4.836v.166z" fill="#9E1E21"/></svg>