<svg width="62" height="62" fill="none" xmlns="http://www.w3.org/2000/svg"><circle cx="31" cy="31" r="31" fill="#9E1E21" fill-opacity=".05"/><circle cx="31" cy="31" r="30.5" stroke="#9E1E21" stroke-opacity=".08"/><circle cx="31" cy="31" r="12" fill="#9E1E21"/><circle cx="31" cy="31" r="11.5" stroke="#9E1E21" stroke-opacity=".53"/><path d="M31 27.58a2.23 2.23 0 00-2.227 2.227c0 1.229.999 2.228 2.227 2.228 1.229 0 2.228-1 2.228-2.228 0-1.228-1-2.227-2.228-2.227zm0 3.517c-.71 0-1.29-.579-1.29-1.29 0-.71.58-1.29 1.29-1.29.711 0 1.29.58 1.29 1.29 0 .712-.579 1.29-1.29 1.29z" fill="#fff"/><path d="M31 25a4.813 4.813 0 00-4.808 4.807v.133c0 1.34.769 2.903 2.285 4.643a19.768 19.768 0 002.228 2.179L31 37l.294-.238a19.76 19.76 0 002.229-2.178c1.515-1.74 2.284-3.303 2.284-4.644v-.133A4.813 4.813 0 0031 25zm3.87 4.94c0 2.266-2.92 5.008-3.87 5.841-.95-.833-3.87-3.575-3.87-5.84v-.134A3.874 3.874 0 0131 25.938a3.874 3.874 0 013.87 3.87v.132z" fill="#fff"/></svg>