<svg width="82" height="82" fill="none" xmlns="http://www.w3.org/2000/svg"><path d="M71.936 61.123c-.898-2.46-1.113-7.77-.122-9.465 2.277-3.895 3.337-7.282 3.337-10.658 0-3.377-1.06-6.764-3.337-10.659-.99-1.695-.776-7.006.122-9.465 4.249-11.634 5.065-16.444 3.235-19.06C74.33.611 72.977 0 71.154 0c-2.846 0-7.128 1.438-15.27 5.13-.534.243-1.782.503-3.26.503-1.421 0-2.185-.246-2.413-.392C46.532 2.883 43.845 1.519 41 1.519c-2.846 0-5.532 1.364-9.211 3.722-.228.145-.992.392-2.413.392-1.478 0-2.726-.26-3.26-.503C17.973 1.438 13.692 0 10.846 0 9.022 0 7.67.611 6.827 1.817c-1.829 2.615-1.012 7.425 3.237 19.06.898 2.459 1.113 7.769.122 9.464C7.909 34.237 6.848 37.623 6.848 41c0 3.376 1.06 6.763 3.338 10.659.99 1.695.776 7.005-.122 9.464-4.249 11.634-5.066 16.444-3.236 19.06C7.671 81.388 9.023 82 10.846 82c2.846 0 7.128-1.439 15.27-5.13.533-.243 1.781-.504 3.26-.504 1.42 0 2.185.247 2.413.393 3.679 2.357 6.365 3.722 9.21 3.722 2.846 0 5.533-1.365 9.212-3.722.228-.146.992-.392 2.413-.392 1.479 0 2.727.26 3.26.502C64.027 80.561 68.308 82 71.155 82c1.824 0 3.175-.611 4.018-1.816 1.83-2.616 1.013-7.426-3.236-19.061zm.611 17.224c-.077.112-.314.45-1.393.45-2.876 0-8.664-2.45-13.946-4.845-1.283-.581-3.209-.789-4.584-.789-1.25 0-2.982.156-4.14.899-3.707 2.374-5.665 3.216-7.484 3.216-1.82 0-3.778-.842-7.483-3.216-1.16-.743-2.892-.899-4.141-.899-1.375 0-3.301.208-4.584.789-5.282 2.395-11.07 4.845-13.946 4.845-1.079 0-1.315-.338-1.393-.45-1.491-2.132 2.222-12.298 3.62-16.125.948-2.598 1.623-9.195-.122-12.18-3.853-6.592-3.853-11.493 0-18.085 1.745-2.985 1.07-9.582.122-12.18-1.398-3.827-5.111-13.994-3.62-16.125.077-.11.313-.449 1.393-.449 2.875 0 8.664 2.45 13.947 4.845 1.282.581 3.208.788 4.583.788 1.25 0 2.982-.156 4.14-.898C37.223 5.564 39.182 4.722 41 4.722s3.777.841 7.483 3.216c1.16.743 2.892.898 4.141.898 1.375 0 3.3-.207 4.583-.788C62.49 5.652 68.28 3.203 71.154 3.203c1.079 0 1.315.338 1.393.45 1.49 2.131-2.222 12.298-3.62 16.125-.949 2.597-1.623 9.195.122 12.18 3.852 6.59 3.852 11.492 0 18.084-1.745 2.985-1.07 9.582-.122 12.18 1.398 3.827 5.111 13.994 3.62 16.125z" fill="#9E1E21"/><path d="M55.623 53.625l-7.197 7.196a1.602 1.602 0 002.265 2.265l7.197-7.196a1.602 1.602 0 00-2.265-2.265zM40.43 63.555c.41 0 .82-.156 1.133-.469l16.325-16.325a1.602 1.602 0 00-2.265-2.265L39.298 60.821a1.602 1.602 0 001.132 2.734zM12.822 6.037c-.428 0-.83.166-1.132.469a1.605 1.605 0 000 2.265c.303.302.704.469 1.132.469.43 0 .831-.167 1.132-.47.303-.302.47-.704.47-1.132 0-.427-.167-.83-.47-1.132a1.59 1.59 0 00-1.132-.47z" fill="#9E1E21"/><path d="M64.763 67.697V14.301l1.003-1.002a1.59 1.59 0 00.47-1.133c0-.427-.167-.83-.47-1.132a1.59 1.59 0 00-1.132-.47c-.427 0-.831.167-1.132.47l-1.004 1.004h-43.01l-1.003-1.004a1.59 1.59 0 00-1.132-.47c-.428 0-.83.167-1.132.47a1.59 1.59 0 00-.47 1.132c0 .428.167.83.47 1.133l1.003 1.002v53.394l-1.003 1.003a1.59 1.59 0 00-.47 1.132c0 .43.167.831.47 1.132.302.303.704.47 1.132.47.427 0 .83-.167 1.132-.47l1.002-1.002H62.5l1.003 1.002c.3.303.705.47 1.132.47.428 0 .83-.167 1.132-.47.303-.3.47-.703.47-1.13 0-.43-.167-.831-.47-1.134l-1.003-1.002zm-3.203-.939H20.427V15.242H61.56v51.516zM69.163 9.24a1.603 1.603 0 000-3.203 1.603 1.603 0 000 3.203zM12.822 72.76c-.428 0-.83.167-1.132.47a1.605 1.605 0 000 2.265c.303.302.704.469 1.132.469a1.603 1.603 0 000-3.203zM68.031 75.494c.303.303.705.47 1.132.47a1.603 1.603 0 000-3.203 1.603 1.603 0 00-1.132 2.734z" fill="#9E1E21"/></svg>