<svg width="8" height="12" viewBox="0 0 8 12" fill="none" xmlns="http://www.w3.org/2000/svg">
<path d="M0.189408 0.152565C0.441952 -0.050855 0.851406 -0.050855 1.10395 0.152565L7.81059 5.55465C8.06314 5.75807 8.06314 6.08788 7.81059 6.2913C7.55805 6.49472 7.14859 6.49472 6.89605 6.2913L0.189408 0.889213C-0.0631359 0.685793 -0.063136 0.355985 0.189408 0.152565Z" fill="#9E1E21"/>
<path d="M0.189408 11.8474C0.441952 12.0509 0.851406 12.0509 1.10395 11.8474L7.81059 6.44535C8.06314 6.24193 8.06314 5.91212 7.81059 5.7087C7.55805 5.50528 7.14859 5.50528 6.89605 5.7087L0.189408 11.1108C-0.0631359 11.3142 -0.063136 11.644 0.189408 11.8474Z" fill="#9E1E21"/>
</svg>
