<svg width="16" height="16" fill="none" xmlns="http://www.w3.org/2000/svg"><path d="M12.906 14.567c.345 0 .625-.28.625-.625V2.5c0-1.379-1.121-2.5-2.5-2.5H4.97a2.503 2.503 0 00-2.5 2.5v11c0 1.379 1.121 2.5 2.5 2.5h6.062c1.379 0 2.5-1.121 2.5-2.5a.625.625 0 00-1.25 0c0 .69-.56 1.25-1.25 1.25H4.97c-.69 0-1.25-.56-1.25-1.25v-11c0-.69.56-1.25 1.25-1.25h6.062c.69 0 1.25.56 1.25 1.25v11.442c0 .345.28.625.625.625z" fill="#9E1E21"/><path d="M8 13.785a.625.625 0 100-1.25.625.625 0 000 1.25zM9.25 2.848a.625.625 0 00-.625-.625h-1.25a.625.625 0 100 1.25h1.25c.345 0 .625-.28.625-.625z" fill="#9E1E21"/></svg>