<svg width="93" height="93" fill="none" xmlns="http://www.w3.org/2000/svg"><path d="M70.477 23.25H50.133a5.07 5.07 0 00-3.633 1.531 5.071 5.071 0 00-3.633-1.531H22.523a5.092 5.092 0 00-5.085 5.086v3.545a4.354 4.354 0 00-4.815-2.023l-5.87 1.468A4.336 4.336 0 003.555 36.5l.562 2.529a71.324 71.324 0 011.696 15.446v4.376a5.092 5.092 0 005.085 5.086h.319l-1.002 4.007a1.453 1.453 0 001.41 1.805h4.36a1.452 1.452 0 001.162-.581l3.923-5.231h53.766l3.923 5.23a1.452 1.452 0 001.163.582h4.36a1.452 1.452 0 001.409-1.805l-1.157-4.628a5.09 5.09 0 002.653-4.465v-4.376a71.326 71.326 0 011.696-15.446l.562-2.53a4.336 4.336 0 00-3.198-5.174l-5.87-1.468a4.353 4.353 0 00-4.814 2.023v-3.545a5.092 5.092 0 00-5.087-5.086zm-22.524 5.086a2.182 2.182 0 012.18-2.18h20.343a2.182 2.182 0 012.18 2.18v12.843a5.056 5.056 0 00-2.18-.492H50.133c-.754 0-1.5.168-2.18.492V28.336zm0 17.437a2.182 2.182 0 012.18-2.18h20.343a2.182 2.182 0 012.18 2.18v3.633H47.953v-3.633zm-27.61-17.437a2.182 2.182 0 012.18-2.18h20.344a2.182 2.182 0 012.18 2.18v12.843a5.056 5.056 0 00-2.18-.492H22.523c-.754 0-1.498.168-2.18.492V28.336zm0 17.437a2.182 2.182 0 012.18-2.18h20.344a2.182 2.182 0 012.18 2.18v3.633H20.344v-3.633zm-5.085 21.07h-1.772l.727-2.906h3.225l-2.18 2.907zm65.39 0l-2.18-2.906h3.226l.726 2.907h-1.772zm-4.33-24.37l1.572-8.645a1.454 1.454 0 011.782-1.15l5.87 1.467a1.446 1.446 0 011.066 1.726l-.562 2.528a74.23 74.23 0 00-1.765 16.077v4.376a2.181 2.181 0 01-2.18 2.18H10.898a2.182 2.182 0 01-2.18-2.18v-4.376a74.232 74.232 0 00-1.764-16.077l-.562-2.529a1.446 1.446 0 011.066-1.725s6.108-1.512 6.226-1.512a1.456 1.456 0 011.426 1.194l1.572 8.646c.502 2.767.755 5.574.756 8.386a1.453 1.453 0 001.453 1.453h55.218a1.453 1.453 0 001.454-1.453v-.002c0-2.812.253-5.617.755-8.383z" fill="#9E1E21"/><path d="M27.61 34.875h1.453a1.453 1.453 0 100-2.906h-1.454a1.453 1.453 0 100 2.906zM36.328 34.875h1.453a1.453 1.453 0 100-2.906h-1.453a1.453 1.453 0 100 2.906zM55.219 34.875h1.453a1.453 1.453 0 100-2.906h-1.453a1.453 1.453 0 100 2.906zM63.938 34.875h1.453a1.453 1.453 0 100-2.906h-1.454a1.453 1.453 0 100 2.906z" fill="#9E1E21"/></svg>