<svg xmlns="http://www.w3.org/2000/svg" viewBox="0 0 469.317 469.317"><path fill="#9E1E21" d="M437.325 42.651h-128c-5.888 0-10.667 4.779-10.667 10.667s4.779 10.667 10.667 10.667h128c5.888 0 10.667-4.779 10.667-10.667s-4.779-10.667-10.667-10.667z"/><path fill="#9E1E21" d="M444.877 45.787L402.211 3.12c-4.16-4.16-10.923-4.16-15.083 0s-4.16 10.923 0 15.083l35.115 35.115-35.136 35.136c-4.16 4.16-4.16 10.923 0 15.083a10.716 10.716 0 0015.104 0l42.667-42.667c4.159-4.161 4.159-10.923-.001-15.083zm-284.885-3.136h-128c-5.888 0-10.667 4.779-10.667 10.667s4.779 10.667 10.667 10.667h128c5.888 0 10.667-4.779 10.667-10.667s-4.779-10.667-10.667-10.667z"/><path fill="#9E1E21" d="M47.075 53.317L82.19 18.202c4.16-4.16 4.16-10.923 0-15.083s-10.923-4.16-15.083 0L24.44 45.787c-4.16 4.16-4.16 10.923 0 15.083l42.667 42.667c2.091 2.069 4.821 3.115 7.552 3.115s5.461-1.045 7.531-3.136c4.16-4.16 4.16-10.923 0-15.083L47.075 53.317zm379.584 181.334c-11.776 0-21.333 9.579-21.333 21.333v10.667c0 5.888-4.779 10.667-10.667 10.667s-10.667-4.779-10.667-10.667v-32c0-11.755-9.557-21.333-21.333-21.333s-21.333 9.579-21.333 21.333v32c0 5.888-4.779 10.667-10.667 10.667s-10.667-4.779-10.667-10.667v-53.333c0-11.755-9.557-21.333-21.333-21.333s-21.333 9.579-21.333 21.333v53.333c0 5.888-4.779 10.667-10.667 10.667s-10.667-4.779-10.667-10.667v-160c0-11.755-9.557-21.333-21.333-21.333s-21.333 9.579-21.333 21.333v202.667c0 4.032-2.283 7.723-5.888 9.536a10.706 10.706 0 01-11.157-1.003l-54.123-40.597c-6.101-4.565-13.355-6.805-20.565-6.805-8.875 0-17.707 3.392-24.32 9.984-4.16 4.16-4.16 10.923 0 15.083l151.915 151.936c14.123 14.101 32.875 21.867 52.821 21.867h49.984c52.928 0 96-43.072 96-96V255.984c-.001-11.755-9.558-21.333-21.334-21.333z"/></svg>