<svg width="14" height="14" fill="none" xmlns="http://www.w3.org/2000/svg"><path d="M11.976 5.875c.017-1.974-1.664-3.783-3.748-4.033a3.03 3.03 0 01-.134-.02 1.948 1.948 0 00-.317-.035c-.427 0-.541.3-.571.478a.553.553 0 00.082.435c.142.192.39.226.59.253.059.009.114.016.16.026 1.872.419 2.502 1.076 2.81 2.932.008.045.011.101.015.16.013.222.041.684.537.684a.879.879 0 00.132-.01c.462-.071.448-.493.44-.696a1.027 1.027 0 01.004-.174z" fill="#ACACAC"/><path d="M7.656 1.117c.055.004.107.008.151.014 3.074.473 4.487 1.93 4.879 5.027.006.052.007.117.008.185.004.242.012.745.553.755h.017a.53.53 0 00.4-.152c.17-.176.157-.437.148-.647-.002-.052-.005-.1-.004-.143C13.847 2.988 11.105.116 7.94.01A.22.22 0 007.9.01a.266.266 0 01-.037.002c-.032 0-.07-.003-.112-.006C7.702.004 7.646 0 7.59 0c-.504 0-.6.358-.612.572-.028.493.449.528.679.545zM12.537 10.161a9.62 9.62 0 01-.196-.152c-.335-.27-.692-.52-1.038-.76l-.214-.15c-.443-.31-.84-.462-1.216-.462-.506 0-.947.28-1.311.831-.161.244-.357.363-.598.363-.143 0-.305-.04-.482-.12-1.427-.648-2.447-1.64-3.03-2.95-.281-.634-.19-1.048.306-1.385.282-.19.806-.547.769-1.228-.042-.774-1.75-3.102-2.469-3.367A1.401 1.401 0 002.105.78C1.278 1.057.685 1.545.39 2.19c-.286.623-.273 1.356.037 2.118.897 2.203 2.159 4.123 3.75 5.708 1.557 1.552 3.471 2.822 5.689 3.777.2.086.41.133.562.167.052.012.097.022.13.031a.215.215 0 00.056.008h.017c1.043 0 2.295-.953 2.68-2.04.337-.95-.278-1.421-.773-1.799zM8.117 3.633c-.179.005-.55.014-.68.392-.062.177-.054.33.021.457.11.185.323.241.516.272.7.113 1.059.5 1.13 1.218.034.335.26.569.549.569a.54.54 0 00.065-.004c.348-.042.517-.298.502-.76.005-.484-.247-1.033-.678-1.47-.431-.438-.952-.685-1.425-.674z" fill="#ACACAC"/></svg>