<svg width="20" height="20" fill="none" xmlns="http://www.w3.org/2000/svg"><path d="M19.16 7.059a7.007 7.007 0 00-2.073-4.986A7.009 7.009 0 0012.1 0H7.918a7.009 7.009 0 00-4.986 2.073A7.01 7.01 0 00.86 7.059v3.288c0 1.454.444 2.854 1.284 4.046A7.083 7.083 0 005.04 16.79v1.888c0 .977.546 1.323 1.015 1.323.334 0 .669-.165.994-.49l2.104-2.105h2.947a7.009 7.009 0 004.986-2.073 7.009 7.009 0 002.073-4.986V7.06zm-7.06 9.175H8.912a.585.585 0 00-.414.171l-2.275 2.276-.01.009V16.397c0-.242-.15-.46-.376-.547-2.276-.868-3.805-3.08-3.805-5.503V7.059c0-1.566.615-3.042 1.73-4.158a5.845 5.845 0 014.157-1.73h4.183c1.565 0 3.041.615 4.157 1.73a5.844 5.844 0 011.73 4.158v3.288a5.894 5.894 0 01-5.887 5.886z" fill="#9E1E21"/><path d="M11.568 9.584a.586.586 0 00-.829 0l-.473.473-1.834-1.834.473-.473a.586.586 0 000-.83L6.686 4.703a.586.586 0 00-.828 0L4.304 6.255c-.84.84-.84 2.207 0 3.048l4.882 4.881c.406.406.947.63 1.524.63a2.14 2.14 0 001.523-.63l1.554-1.553a.586.586 0 000-.828l-2.22-2.22zm-.163 3.772a.976.976 0 01-.695.286.976.976 0 01-.696-.286l-4.88-4.882a.984.984 0 01-.001-1.39l1.139-1.14 1.39 1.391-.473.473a.586.586 0 000 .829L9.85 11.3c.23.228.6.229.83 0l.473-.474 1.39 1.39-1.14 1.14zM10.152 2.592a.586.586 0 100 1.172c1.34 0 2.602.522 3.55 1.47a4.987 4.987 0 011.47 3.55.586.586 0 001.172 0c0-1.654-.644-3.209-1.814-4.378a6.152 6.152 0 00-4.378-1.814z" fill="#9E1E21"/><path d="M12.662 8.784a.586.586 0 001.172 0 3.686 3.686 0 00-3.682-3.682.586.586 0 100 1.172 2.513 2.513 0 012.51 2.51z" fill="#9E1E21"/></svg>