<svg width="14" height="14" fill="none" xmlns="http://www.w3.org/2000/svg"><path d="M10.36 8.045c-.028-.013-1.049-.516-1.23-.581a.706.706 0 00-.238-.053c-.138 0-.253.069-.343.204-.102.151-.411.512-.506.62-.013.014-.03.031-.04.031a3.54 3.54 0 01-.215-.086c-1.095-.475-1.926-1.619-2.04-1.812-.016-.027-.017-.04-.017-.04a.33.33 0 01.06-.07c.055-.056.116-.128.174-.198l.082-.098c.085-.099.123-.175.166-.263l.023-.046a.476.476 0 00-.014-.448c-.024-.049-.455-1.089-.5-1.198-.111-.264-.257-.386-.459-.386l-.079.003c-.095.004-.618.073-.848.218-.245.155-.66.646-.66 1.512 0 .778.495 1.513.707 1.793l.029.042c.812 1.186 1.825 2.065 2.852 2.476.988.394 1.456.44 1.722.44.112 0 .202-.009.28-.017l.05-.004c.342-.03 1.093-.42 1.263-.894.135-.373.17-.781.08-.93-.06-.1-.166-.151-.3-.215z" fill="#ACACAC"/><path d="M7.125 0C3.333 0 .248 3.062.248 6.825c0 1.217.326 2.408.943 3.451L.01 13.76a.182.182 0 00.227.232l3.633-1.155a6.923 6.923 0 003.255.812c3.79 0 6.875-3.062 6.875-6.824C14 3.062 10.916 0 7.125 0zm0 12.227a5.448 5.448 0 01-2.998-.893.181.181 0 00-.154-.022l-1.82.579.587-1.733a.182.182 0 00-.025-.166 5.329 5.329 0 01-1.037-3.167c0-2.98 2.443-5.403 5.446-5.403 3.003 0 5.446 2.423 5.446 5.403 0 2.979-2.443 5.402-5.446 5.402z" fill="#ACACAC"/></svg>